<svg viewBox="0 0 1200 880" xmlns="http://www.w3.org/2000/svg" font-family="Tahoma, 'Noto Sans Thai', 'TH Sarabun New', Arial, sans-serif">
  <defs>
    <marker id="arr" markerWidth="10" markerHeight="8" refX="8" refY="3" orient="auto" markerUnits="strokeWidth">
      <path d="M0,0 L8,3 L0,6 Z" fill="#5A6B8C"/>
    </marker>
    <style>
      .t  { fill:#1F3864; }
      .lbl{ font-size:17px; font-weight:bold; fill:#1F3864; }
      .bt { font-size:15px; font-weight:bold; }
      .tx { font-size:12px; }
      .sm { font-size:11px; }
    </style>
  </defs>

  <rect x="0" y="0" width="1200" height="880" fill="#FFFFFF"/>

  <!-- ===================== HEADER ===================== -->
  <rect x="0" y="0" width="1200" height="96" fill="#1F3864"/>
  <text x="40" y="44" font-size="28" font-weight="bold" fill="#FFFFFF">Surveyor Micro Toolkit &#8212; SMT</text>
  <text x="41" y="74" font-size="14" fill="#BBD0EE">Core Engine Blueprint &#183; Python = master &#183; &#3614;&#3633;&#3602;&#3609;&#3634;&#3605;&#3656;&#3629;&#3604;&#3657;&#3623;&#3618; Claude Code (VS Code)</text>
  <!-- pillars -->
  <g>
    <rect x="700" y="32" width="112" height="32" rx="6" fill="#2F5597"/>
    <text x="756" y="53" font-size="13" font-weight="bold" fill="#FFFFFF" text-anchor="middle">SAFE</text>
    <rect x="820" y="32" width="112" height="32" rx="6" fill="#2F5597"/>
    <text x="876" y="53" font-size="13" font-weight="bold" fill="#FFFFFF" text-anchor="middle">SMALL</text>
    <rect x="940" y="32" width="112" height="32" rx="6" fill="#2F5597"/>
    <text x="996" y="53" font-size="13" font-weight="bold" fill="#FFFFFF" text-anchor="middle">STABLE</text>
    <rect x="1060" y="32" width="112" height="32" rx="6" fill="#2F5597"/>
    <text x="1116" y="53" font-size="13" font-weight="bold" fill="#FFFFFF" text-anchor="middle">MODULAR</text>
  </g>

  <!-- ===================== SECTION A : CONCEPT / DATA FLOW ===================== -->
  <text x="40" y="138" class="lbl">A &#183; &#3649;&#3609;&#3623;&#3588;&#3636;&#3604; &amp; &#3585;&#3634;&#3619;&#3652;&#3627;&#3621;&#3586;&#3629;&#3591;&#3586;&#3657;&#3629;&#3617;&#3641;&#3621; (Concept / Data Flow)</text>

  <!-- INPUT -->
  <rect x="40" y="165" width="176" height="158" rx="10" fill="#E8EEF7" stroke="#2F5597" stroke-width="1.5"/>
  <rect x="40" y="165" width="176" height="30" rx="10" fill="#2F5597"/>
  <text x="128" y="186" class="bt" fill="#FFFFFF" text-anchor="middle">INPUT</text>
  <text x="56" y="222" class="tx t">&#8226; PI &#8211; &#3592;&#3640;&#3604;&#3649;&#3609;&#3623;&#3619;&#3634;&#3610;</text>
  <text x="56" y="246" class="tx t">&#8226; VPI &#8211; &#3592;&#3640;&#3604;&#3649;&#3609;&#3623;&#3604;&#3636;&#3656;&#3591;</text>
  <text x="56" y="270" class="tx t">&#8226; Control &#3592;&#3634;&#3585;&#3649;&#3610;&#3610;</text>
  <text x="56" y="294" class="sm" fill="#5A6B8C">(N, E, Level, Radius)</text>

  <!-- BUILD -->
  <rect x="256" y="165" width="190" height="158" rx="10" fill="#FCE9D6" stroke="#C55A11" stroke-width="1.5"/>
  <rect x="256" y="165" width="190" height="30" rx="10" fill="#C55A11"/>
  <text x="351" y="186" class="bt" fill="#FFFFFF" text-anchor="middle">BUILD</text>
  <text x="272" y="224" class="tx t">AlignmentBuilder</text>
  <text x="280" y="244" class="sm" fill="#5A6B8C">PI &#8594; &#3605;&#3634;&#3619;&#3634;&#3591; element</text>
  <text x="272" y="274" class="tx t">VerticalBuilder</text>
  <text x="280" y="294" class="sm" fill="#5A6B8C">VPI &#8594; &#3650;&#3588;&#3657;&#3591;&#3604;&#3636;&#3656;&#3591; (profile)</text>

  <!-- CORE ENGINE -->
  <rect x="486" y="150" width="234" height="188" rx="10" fill="#FFFFFF" stroke="#1F3864" stroke-width="2"/>
  <rect x="486" y="150" width="234" height="30" rx="10" fill="#1F3864"/>
  <text x="603" y="171" class="bt" fill="#FFFFFF" text-anchor="middle">CORE ENGINE (Python)</text>
  <text x="500" y="200" class="sm" fill="#5A6B8C">Foundation</text>
  <g>
    <rect x="500" y="206" width="92" height="26" rx="5" fill="#E2EFDA" stroke="#548235"/>
    <text x="546" y="223" class="tx" fill="#375623" text-anchor="middle">fpmath &#10003;</text>
    <rect x="600" y="206" width="92" height="26" rx="5" fill="#E2EFDA" stroke="#548235"/>
    <text x="646" y="223" class="tx" fill="#375623" text-anchor="middle">wcb &#10003;</text>
  </g>
  <text x="500" y="256" class="sm" fill="#5A6B8C">Domain</text>
  <g>
    <rect x="500" y="262" width="100" height="26" rx="5" fill="#E8EEF7" stroke="#2F5597"/>
    <text x="550" y="279" class="tx t" text-anchor="middle">alignment</text>
    <rect x="608" y="262" width="100" height="26" rx="5" fill="#E8EEF7" stroke="#2F5597"/>
    <text x="658" y="279" class="tx t" text-anchor="middle">vertical</text>
    <rect x="500" y="294" width="100" height="26" rx="5" fill="#E8EEF7" stroke="#2F5597"/>
    <text x="550" y="311" class="tx t" text-anchor="middle">crossfall</text>
    <rect x="608" y="294" width="100" height="26" rx="5" fill="#E8EEF7" stroke="#2F5597"/>
    <text x="658" y="311" class="tx t" text-anchor="middle">surface</text>
  </g>

  <!-- OPERATIONS -->
  <rect x="772" y="156" width="208" height="50" rx="8" fill="#DDEBF7" stroke="#2F5597"/>
  <text x="786" y="178" class="tx" font-weight="bold" fill="#1F3864">FORWARD (&#3623;&#3634;&#3591;&#3605;&#3635;&#3649;&#3627;&#3609;&#3656;&#3591;)</text>
  <text x="786" y="196" class="sm" fill="#1F3864">sta, offset &#8594; N, E, WCB, Level</text>

  <rect x="772" y="222" width="208" height="50" rx="8" fill="#DDEBF7" stroke="#2F5597"/>
  <text x="786" y="244" class="tx" font-weight="bold" fill="#1F3864">INVERSE (&#3605;&#3619;&#3623;&#3592;&#3592;&#3640;&#3604;)</text>
  <text x="786" y="262" class="sm" fill="#1F3864">N, E &#8594; sta, offset, WCB</text>

  <rect x="772" y="288" width="208" height="50" rx="8" fill="#E2EFDA" stroke="#548235"/>
  <text x="786" y="310" class="tx" font-weight="bold" fill="#375623">CROSS-CHECK</text>
  <text x="786" y="328" class="sm" fill="#375623">&#3588;&#3656;&#3634;&#3588;&#3635;&#3609;&#3623;&#3603; &#8596; &#3588;&#3656;&#3634;&#3651;&#3609;&#3649;&#3610;&#3610;</text>

  <!-- OUTPUT -->
  <rect x="1008" y="165" width="164" height="158" rx="10" fill="#F2F2F2" stroke="#7F7F7F" stroke-width="1.5"/>
  <rect x="1008" y="165" width="164" height="30" rx="10" fill="#7F7F7F"/>
  <text x="1090" y="186" class="bt" fill="#FFFFFF" text-anchor="middle">OUTPUT</text>
  <text x="1022" y="222" class="tx t">&#8226; &#3614;&#3636;&#3585;&#3633;&#3604; / setting-out</text>
  <text x="1022" y="246" class="tx t">&#8226; &#3619;&#3634;&#3618;&#3591;&#3634;&#3609;&#3605;&#3619;&#3623;&#3592;&#3649;&#3610;&#3610;</text>
  <text x="1022" y="270" class="tx t">&#8226; LandXML / CSV</text>
  <text x="1022" y="294" class="tx t">&#8226; DXF / KML</text>

  <!-- arrows (A) -->
  <line x1="218" y1="244" x2="252" y2="244" stroke="#5A6B8C" stroke-width="2" marker-end="url(#arr)"/>
  <line x1="448" y1="244" x2="482" y2="244" stroke="#5A6B8C" stroke-width="2" marker-end="url(#arr)"/>
  <line x1="722" y1="244" x2="768" y2="244" stroke="#5A6B8C" stroke-width="2" marker-end="url(#arr)"/>
  <line x1="982" y1="181" x2="1006" y2="200" stroke="#5A6B8C" stroke-width="2" marker-end="url(#arr)"/>
  <line x1="982" y1="247" x2="1006" y2="244" stroke="#5A6B8C" stroke-width="2" marker-end="url(#arr)"/>
  <line x1="982" y1="313" x2="1006" y2="290" stroke="#5A6B8C" stroke-width="2" marker-end="url(#arr)"/>

  <!-- ===================== SECTION B : DEV WORKFLOW ===================== -->
  <text x="40" y="408" class="lbl">B &#183; &#3621;&#3635;&#3604;&#3633;&#3610;&#3614;&#3633;&#3602;&#3609;&#3634; &amp; &#3585;&#3634;&#3619;&#3607;&#3635;&#3591;&#3634;&#3609;&#3585;&#3633;&#3610; Claude Code (Dev Workflow &#183; TDD bottom-up)</text>

  <rect x="32" y="424" width="1140" height="186" rx="12" fill="#F7F7F9" stroke="#D0D5DD"/>

  <!-- Oracle -->
  <rect x="52" y="452" width="210" height="130" rx="10" fill="#FFF6E5" stroke="#C58A11" stroke-width="1.5"/>
  <text x="157" y="476" class="bt t" text-anchor="middle">ORACLE</text>
  <text x="68" y="504" class="tx t">reference/*.gs</text>
  <text x="72" y="522" class="sm" fill="#5A6B8C">engine &#3612;&#3656;&#3634;&#3609; 45/45</text>
  <text x="68" y="548" class="tx t">golden tests</text>
  <text x="72" y="566" class="sm" fill="#5A6B8C">tables.json (&#3588;&#3656;&#3634;&#3619;&#3641;&#3657;&#3588;&#3635;&#3605;&#3629;&#3610;)</text>

  <!-- TDD chips -->
  <text x="300" y="450" class="sm" fill="#5A6B8C">TDD &#183; bottom-up &#183; &#3648;&#3607;&#3637;&#3618;&#3610; oracle &#3607;&#3640;&#3585;&#3586;&#3633;&#3657;&#3609;</text>
  <g>
    <rect x="300" y="462" width="96" height="40" rx="6" fill="#E2EFDA" stroke="#548235"/>
    <text x="348" y="481" class="tx" fill="#375623" text-anchor="middle">fpmath</text>
    <text x="348" y="496" class="sm" fill="#375623" text-anchor="middle">&#10003; DONE</text>

    <rect x="412" y="462" width="96" height="40" rx="6" fill="#E2EFDA" stroke="#548235"/>
    <text x="460" y="481" class="tx" fill="#375623" text-anchor="middle">wcb</text>
    <text x="460" y="496" class="sm" fill="#375623" text-anchor="middle">&#10003; DONE</text>

    <rect x="524" y="462" width="110" height="40" rx="6" fill="#FFFFFF" stroke="#2F5597" stroke-dasharray="4 3"/>
    <text x="579" y="481" class="tx t" text-anchor="middle">alignment</text>
    <text x="579" y="496" class="sm" fill="#C55A11" text-anchor="middle">&#9656; NEXT</text>

    <rect x="650" y="462" width="150" height="40" rx="6" fill="#FFFFFF" stroke="#2F5597" stroke-dasharray="4 3"/>
    <text x="725" y="481" class="tx t" text-anchor="middle">vertical / crossfall</text>
    <text x="725" y="496" class="sm" fill="#5A6B8C" text-anchor="middle">/ surface</text>

    <rect x="816" y="462" width="96" height="40" rx="6" fill="#FFFFFF" stroke="#2F5597" stroke-dasharray="4 3"/>
    <text x="864" y="486" class="tx t" text-anchor="middle">builders</text>

    <rect x="928" y="462" width="96" height="40" rx="6" fill="#FFFFFF" stroke="#2F5597" stroke-dasharray="4 3"/>
    <text x="976" y="486" class="tx t" text-anchor="middle">check</text>
  </g>
  <!-- chip arrows -->
  <line x1="396" y1="482" x2="410" y2="482" stroke="#9AA4B8" stroke-width="1.5" marker-end="url(#arr)"/>
  <line x1="508" y1="482" x2="522" y2="482" stroke="#9AA4B8" stroke-width="1.5" marker-end="url(#arr)"/>
  <line x1="634" y1="482" x2="648" y2="482" stroke="#9AA4B8" stroke-width="1.5" marker-end="url(#arr)"/>
  <line x1="800" y1="482" x2="814" y2="482" stroke="#9AA4B8" stroke-width="1.5" marker-end="url(#arr)"/>
  <line x1="912" y1="482" x2="926" y2="482" stroke="#9AA4B8" stroke-width="1.5" marker-end="url(#arr)"/>

  <!-- Frontends -->
  <rect x="300" y="524" width="724" height="62" rx="10" fill="#EEF2FB" stroke="#2F5597"/>
  <text x="316" y="546" class="tx" font-weight="bold" fill="#1F3864">FRONTENDS (&#3651;&#3594;&#3657;&#3649;&#3585;&#3609;&#3605;&#3633;&#3623;&#3648;&#3604;&#3637;&#3618;&#3623;):</text>
  <text x="316" y="570" class="tx t">CLI &#183; Jupyter notebook (&#3626;&#3629;&#3609;) &#183; FastAPI &#183; Excel (xlwings) &#183; &#3648;&#3623;&#3655;&#3610;/&#3648;&#3604;&#3626;&#3585;&#3660;&#3607;&#3655;&#3629;&#3611;</text>
  <line x1="662" y1="504" x2="662" y2="522" stroke="#9AA4B8" stroke-width="1.5" marker-end="url(#arr)"/>

  <!-- legend + next -->
  <rect x="52" y="636" width="18" height="14" rx="3" fill="#E2EFDA" stroke="#548235"/>
  <text x="78" y="648" class="sm t">&#3648;&#3626;&#3619;&#3655;&#3592;&#3649;&#3621;&#3657;&#3623; (DONE)</text>
  <rect x="200" y="636" width="18" height="14" rx="3" fill="#FFFFFF" stroke="#2F5597" stroke-dasharray="4 3"/>
  <text x="226" y="648" class="sm t">&#3618;&#3633;&#3591;&#3652;&#3617;&#3656;&#3607;&#3635; (TODO)</text>

  <rect x="380" y="628" width="792" height="34" rx="8" fill="#FFF6E5" stroke="#C58A11"/>
  <text x="396" y="650" class="tx t">&#9656; &#3585;&#3657;&#3634;&#3623;&#3606;&#3633;&#3604;&#3652;&#3611;: &#3614;&#3629;&#3619;&#3660;&#3605; <tspan font-weight="bold">alignment.py</tspan> (&#3648;&#3615;&#3626; 2 = &#3627;&#3633;&#3623;&#3651;&#3592;) &#3604;&#3657;&#3623;&#3618; golden 30-element + roundtrip test &#8594; &#3605;&#3657;&#3629;&#3591;&#3588;&#3639;&#3609;&#3588;&#3656;&#3634;&#3605;&#3619;&#3591; oracle</text>

  <!-- footer line -->
  <text x="40" y="700" class="sm" fill="#9AA4B8">Single source of truth: Python core &#8594; &#3607;&#3640;&#3585; frontend &#3651;&#3594;&#3657;&#3649;&#3585;&#3609;&#3605;&#3633;&#3623;&#3648;&#3604;&#3637;&#3618;&#3623; &#183; reference (.gs) = oracle &#3626;&#3635;&#3627;&#3619;&#3633;&#3610;&#3648;&#3607;&#3637;&#3618;&#3610;&#3618;&#3633;&#3609;&#3588;&#3623;&#3634;&#3617;&#3606;&#3641;&#3585;&#3605;&#3657;&#3629;&#3591;</text>
</svg>
